<svg version="1.1" xmlns="http://www.w3.org/2000/svg" xmlns:xlink="http://www.w3.org/1999/xlink" width="25px" height="25px" viewBox="0,0,256,256"><g fill="#ffffff" fill-rule="nonzero" stroke="none" stroke-width="1" stroke-linecap="butt" stroke-linejoin="miter" stroke-miterlimit="10" stroke-dasharray="" stroke-dashoffset="0" font-family="none" font-weight="none" font-size="none" text-anchor="none" style="mix-blend-mode: normal"><g transform="scale(8.53333,8.53333)"><path d="M21.99023,4.9707c-0.07443,0.00152 -0.14846,0.01135 -0.2207,0.0293h-6.71875h-0.09961h-6.79883c-0.04971,-0.00834 -0.09999,-0.01291 -0.15039,-0.01367c-0.34542,-0.0019 -0.66737,0.17458 -0.85156,0.4668l-5.82617,6.79883c-0.22405,0.1986 -0.34734,0.48713 -0.336,0.78632c0.01135,0.29919 0.15614,0.57755 0.39459,0.75861l12.88672,12.88672c0.00323,0.00393 0.00648,0.00784 0.00977,0.01172l0.01367,0.01172c0.04707,0.04736 0.09876,0.08989 0.1543,0.12695c0.0026,0.00131 0.0052,0.00262 0.00781,0.00391c0.02408,0.01604 0.04884,0.03103 0.07422,0.04492c0.00519,0.002 0.0104,0.00395 0.01563,0.00586c0.11494,0.05934 0.2403,0.09582 0.36914,0.10742c0.03377,0.00302 0.06766,0.00433 0.10156,0.00391c0.01303,-0.0004 0.02606,-0.00105 0.03906,-0.00195c0.01696,-0.00087 0.03389,-0.00217 0.05078,-0.00391c0.00325,0.00002 0.00651,0.00002 0.00976,0c0.00587,-0.00125 0.01173,-0.00255 0.01758,-0.00391c0.02687,-0.00347 0.05358,-0.00803 0.08008,-0.01367c0.02629,-0.00546 0.05236,-0.01197 0.07813,-0.01953c0.00653,-0.00189 0.01304,-0.00384 0.01953,-0.00586c0.00719,-0.00252 0.01435,-0.00513 0.02148,-0.00781c0.0554,-0.01934 0.10899,-0.04352 0.16016,-0.07227c0.00065,-0.00065 0.0013,-0.0013 0.00195,-0.00195c0.02266,-0.0128 0.04481,-0.02649 0.06641,-0.04102c0.00525,-0.00386 0.01045,-0.00776 0.01563,-0.01172c0.04665,-0.03267 0.09043,-0.06926 0.13086,-0.10937l0.00781,-0.00586c0.00461,-0.00516 0.00917,-0.01037 0.01367,-0.01562l12.89062,-12.89062c0.2375,-0.18139 0.38144,-0.45948 0.3924,-0.75812c0.01096,-0.29864 -0.1122,-0.58654 -0.33576,-0.78485l-5.7832,-6.74609c-0.17557,-0.33449 -0.52463,-0.54151 -0.90234,-0.53516zM9.32422,7h3.73047l-2.66406,3.73047zM16.94531,7h3.73047l-1.06641,3.73047zM15,7.72266l3.05469,4.27734h-6.10938zM7.54883,8.06055l1.125,3.93945h-4.5zM22.45117,8.06055l3.375,3.93945h-4.5zM4.41406,14h4.89844l3.0625,7.96094zM11.45703,14h7.08594l-3.54297,9.21289zM20.6875,14h4.89844l-7.96094,7.96094z"></path></g></g></svg>